REM DIRINDEX 1\2,1\3,1\4
REM DIRNAME cjc153,folder01,folder02,folder03
TITLE ""
FILE "Track14.mp3" MP3
  TRACK 01 AUDIO
    TITLE "0:"
    INDEX 01 00:00:00
  TRACK 02 AUDIO
    TITLE "4:cjc153_0772"
    INDEX 01 00:00:05
  TRACK 03 AUDIO
    TITLE "0:"
    INDEX 01 00:02:08
  TRACK 04 AUDIO
    TITLE "2:cjc153_0773"
    INDEX 01 00:02:57
  TRACK 05 AUDIO
    TITLE "0:"
    INDEX 01 00:03:53
  TRACK 06 AUDIO
    TITLE "3:cjc153_0774"
    INDEX 01 00:04:09
  TRACK 07 AUDIO
    TITLE "0:"
    INDEX 01 00:05:10
  TRACK 08 AUDIO
    TITLE "2:cjc153_0775"
    INDEX 01 00:05:57
  TRACK 09 AUDIO
    TITLE "0:"
    INDEX 01 00:06:53
  TRACK 10 AUDIO
    TITLE "3:cjc153_0776"
    INDEX 01 00:07:11
  TRACK 11 AUDIO
    TITLE "0:"
    INDEX 01 00:08:11
  TRACK 12 AUDIO
    TITLE "2:cjc153_0777"
    INDEX 01 00:08:54
  TRACK 13 AUDIO
    TITLE "0:"
    INDEX 01 00:09:51
  TRACK 14 AUDIO
    TITLE "3:cjc153_0778"
    INDEX 01 00:10:08
  TRACK 15 AUDIO
    TITLE "0:"
    INDEX 01 00:11:07
  TRACK 16 AUDIO
    TITLE "2:cjc153_0779"
    INDEX 01 00:11:52
  TRACK 17 AUDIO
    TITLE "0:"
    INDEX 01 00:12:52
  TRACK 18 AUDIO
    TITLE "3:cjc153_0780"
    INDEX 01 00:13:10
  TRACK 19 AUDIO
    TITLE "0:"
    INDEX 01 00:14:11
  TRACK 20 AUDIO
    TITLE "2:cjc153_0781"
    INDEX 01 00:14:56
  TRACK 21 AUDIO
    TITLE "0:"
    INDEX 01 00:15:52
  TRACK 22 AUDIO
    TITLE "3:cjc153_0782"
    INDEX 01 00:16:10
  TRACK 23 AUDIO
    TITLE "0:"
    INDEX 01 00:17:10
  TRACK 24 AUDIO
    TITLE "2:cjc153_0783"
    INDEX 01 00:17:55
  TRACK 25 AUDIO
    TITLE "0:"
    INDEX 01 00:18:64
  TRACK 26 AUDIO
    TITLE "3:cjc153_0784"
    INDEX 01 00:19:22
  TRACK 27 AUDIO
    TITLE "0:"
    INDEX 01 00:20:39
  TRACK 28 AUDIO
    TITLE "2:cjc153_0785"
    INDEX 01 00:21:08
  TRACK 29 AUDIO
    TITLE "0:"
    INDEX 01 00:21:68
  TRACK 30 AUDIO
    TITLE "3:cjc153_0786"
    INDEX 01 00:22:30
  TRACK 31 AUDIO
    TITLE "0:"
    INDEX 01 00:23:16
  TRACK 32 AUDIO
    TITLE "2:cjc153_0787"
    INDEX 01 00:23:73
  TRACK 33 AUDIO
    TITLE "0:"
    INDEX 01 00:24:65
  TRACK 34 AUDIO
    TITLE "3:cjc153_0788"
    INDEX 01 00:25:25
  TRACK 35 AUDIO
    TITLE "0:"
    INDEX 01 00:26:20
  TRACK 36 AUDIO
    TITLE "2:cjc153_0789"
    INDEX 01 00:26:66
  TRACK 37 AUDIO
    TITLE "0:"
    INDEX 01 00:28:02
  TRACK 38 AUDIO
    TITLE "3:cjc153_0790"
    INDEX 01 00:28:35
  TRACK 39 AUDIO
    TITLE "0:"
    INDEX 01 00:29:50
  TRACK 40 AUDIO
    TITLE "2:cjc153_0791"
    INDEX 01 00:30:20
  TRACK 41 AUDIO
    TITLE "0:"
    INDEX 01 00:31:14
  TRACK 42 AUDIO
    TITLE "3:cjc153_0792"
    INDEX 01 00:31:49
  TRACK 43 AUDIO
    TITLE "0:"
    INDEX 01 00:32:47
  TRACK 44 AUDIO
    TITLE "2:cjc153_0793"
    INDEX 01 00:33:17
  TRACK 45 AUDIO
    TITLE "0:"
    INDEX 01 00:34:26
  TRACK 46 AUDIO
    TITLE "3:cjc153_0794"
    INDEX 01 00:34:57
  TRACK 47 AUDIO
    TITLE "0:"
    INDEX 01 00:35:72
  TRACK 48 AUDIO
    TITLE "2:cjc153_0795"
    INDEX 01 00:36:42
  TRACK 49 AUDIO
    TITLE "0:"
    INDEX 01 00:37:44
  TRACK 50 AUDIO
    TITLE "3:cjc153_0796"
    INDEX 01 00:38:04
  TRACK 51 AUDIO
    TITLE "0:"
    INDEX 01 00:39:09
  TRACK 52 AUDIO
    TITLE "2:cjc153_0797"
    INDEX 01 00:39:52
  TRACK 53 AUDIO
    TITLE "0:"
    INDEX 01 00:40:58
  TRACK 54 AUDIO
    TITLE "3:cjc153_0798"
    INDEX 01 00:41:16
  TRACK 55 AUDIO
    TITLE "0:"
    INDEX 01 00:42:23
  TRACK 56 AUDIO
    TITLE "2:cjc153_0799"
    INDEX 01 00:42:68
  TRACK 57 AUDIO
    TITLE "0:"
    INDEX 01 00:43:70
  TRACK 58 AUDIO
    TITLE "3:cjc153_0800"
    INDEX 01 00:44:28
  TRACK 59 AUDIO
    TITLE "0:"
    INDEX 01 00:45:35
  TRACK 60 AUDIO
    TITLE "2:cjc153_0801"
    INDEX 01 00:46:04
  TRACK 61 AUDIO
    TITLE "0:"
    INDEX 01 00:46:74
  TRACK 62 AUDIO
    TITLE "3:cjc153_0802"
    INDEX 01 00:47:32
  TRACK 63 AUDIO
    TITLE "0:"
    INDEX 01 00:48:38
  TRACK 64 AUDIO
    TITLE "2:cjc153_0803"
    INDEX 01 00:49:12
  TRACK 65 AUDIO
    TITLE "0:"
    INDEX 01 00:50:05
  TRACK 66 AUDIO
    TITLE "3:cjc153_0804"
    INDEX 01 00:50:39
  TRACK 67 AUDIO
    TITLE "0:"
    INDEX 01 00:51:32
  TRACK 68 AUDIO
    TITLE "2:cjc153_0805"
    INDEX 01 00:52:02
  TRACK 69 AUDIO
    TITLE "0:"
    INDEX 01 00:53:04
  TRACK 70 AUDIO
    TITLE "3:cjc153_0806"
    INDEX 01 00:53:41
  TRACK 71 AUDIO
    TITLE "0:"
    INDEX 01 00:54:44
  TRACK 72 AUDIO
    TITLE "2:cjc153_0807"
    INDEX 01 00:55:18
  TRACK 73 AUDIO
    TITLE "0:"
    INDEX 01 00:56:16
  TRACK 74 AUDIO
    TITLE "3:cjc153_0808"
    INDEX 01 00:56:49
  TRACK 75 AUDIO
    TITLE "0:"
    INDEX 01 00:57:48
  TRACK 76 AUDIO
    TITLE "2:cjc153_0809"
    INDEX 01 00:58:18
  TRACK 77 AUDIO
    TITLE "0:"
    INDEX 01 00:59:10
  TRACK 78 AUDIO
    TITLE "3:cjc153_0810"
    INDEX 01 00:59:45
  TRACK 79 AUDIO
    TITLE "0:"
    INDEX 01 01:00:43
  TRACK 80 AUDIO
    TITLE "2:cjc153_0811"
    INDEX 01 01:01:13
  TRACK 81 AUDIO
    TITLE "0:"
    INDEX 01 01:02:26
  TRACK 82 AUDIO
    TITLE "3:cjc153_0812"
    INDEX 01 01:02:57
  TRACK 83 AUDIO
    TITLE "0:"
    INDEX 01 01:03:65
  TRACK 84 AUDIO
    TITLE "2:cjc153_0813"
    INDEX 01 01:04:35
  TRACK 85 AUDIO
    TITLE "0:"
    INDEX 01 01:05:44
  TRACK 86 AUDIO
    TITLE "3:cjc153_0814"
    INDEX 01 01:06:02
  TRACK 87 AUDIO
    TITLE "0:"
    INDEX 01 01:07:19
  TRACK 88 AUDIO
    TITLE "2:cjc153_0815"
    INDEX 01 01:07:63
  TRACK 89 AUDIO
    TITLE "0:"
    INDEX 01 01:08:62
  TRACK 90 AUDIO
    TITLE "3:cjc153_0816"
    INDEX 01 01:09:18
  TRACK 91 AUDIO
    TITLE "0:"
    INDEX 01 01:10:20
  TRACK 92 AUDIO
    TITLE "2:cjc153_0817"
    INDEX 01 01:10:63
  TRACK 93 AUDIO
    TITLE "0:"
    INDEX 01 01:11:68
  TRACK 94 AUDIO
    TITLE "3:cjc153_0818"
    INDEX 01 01:12:24
  TRACK 95 AUDIO
    TITLE "0:"
    INDEX 01 01:13:32
  TRACK 96 AUDIO
    TITLE "2:cjc153_0819"
    INDEX 01 01:14:04
  TRACK 97 AUDIO
    TITLE "0:"
    INDEX 01 01:14:74
  TRACK 98 AUDIO
    TITLE "3:cjc153_0820"
    INDEX 01 01:15:33
  TRACK 99 AUDIO
    TITLE "0:"
    INDEX 01 01:16:16
  TRACK 100 AUDIO
    TITLE "2:cjc153_0821"
    INDEX 01 01:16:69
  TRACK 101 AUDIO
    TITLE "0:"
    INDEX 01 01:18:07
  TRACK 102 AUDIO
    TITLE "3:cjc153_0822"
    INDEX 01 01:18:41
  TRACK 103 AUDIO
    TITLE "0:"
    INDEX 01 01:19:56
  TRACK 104 AUDIO
    TITLE "2:cjc153_0823"
    INDEX 01 01:20:26
  TRACK 105 AUDIO
    TITLE "0:"
    INDEX 01 01:21:29
  TRACK 106 AUDIO
    TITLE "3:cjc153_0824"
    INDEX 01 01:21:63
  TRACK 107 AUDIO
    TITLE "0:"
    INDEX 01 01:22:70
  TRACK 108 AUDIO
    TITLE "2:cjc153_0825"
    INDEX 01 01:23:44
  TRACK 109 AUDIO
    TITLE "0:"
    INDEX 01 01:24:53
  TRACK 110 AUDIO
    TITLE "3:cjc153_0826"
    INDEX 01 01:25:11
  TRACK 111 AUDIO
    TITLE "0:"
    INDEX 01 01:26:23
  TRACK 112 AUDIO
    TITLE "2:cjc153_0827"
    INDEX 01 01:26:70
  TRACK 113 AUDIO
    TITLE "0:"
    INDEX 01 01:27:59
  TRACK 114 AUDIO
    TITLE "3:cjc153_0828"
    INDEX 01 01:28:16
  TRACK 115 AUDIO
    TITLE "0:"
    INDEX 01 01:29:11
  TRACK 116 AUDIO
    TITLE "2:cjc153_0829"
    INDEX 01 01:29:56
  TRACK 117 AUDIO
    TITLE "0:"
    INDEX 01 01:30:62
  TRACK 118 AUDIO
    TITLE "3:cjc153_0830"
    INDEX 01 01:31:20
  TRACK 119 AUDIO
    TITLE "0:"
    INDEX 01 01:32:35
  TRACK 120 AUDIO
    TITLE "2:cjc153_0831"
    INDEX 01 01:33:03
  TRACK 121 AUDIO
    TITLE "0:"
    INDEX 01 01:33:58
  TRACK 122 AUDIO
    TITLE "3:cjc153_0832"
    INDEX 01 01:34:34
  TRACK 123 AUDIO
    TITLE "0:"
    INDEX 01 01:35:14
  TRACK 124 AUDIO
    TITLE "2:cjc153_0833"
    INDEX 01 01:35:73
  TRACK 125 AUDIO
    TITLE "0:"
    INDEX 01 01:36:74
  TRACK 126 AUDIO
    TITLE "3:cjc153_0834"
    INDEX 01 01:37:30
  TRACK 127 AUDIO
    TITLE "0:"
    INDEX 01 01:38:32
  TRACK 128 AUDIO
    TITLE "2:cjc153_0835"
    INDEX 01 01:39:04
  TRACK 129 AUDIO
    TITLE "0:"
    INDEX 01 01:40:05
  TRACK 130 AUDIO
    TITLE "3:cjc153_0836"
    INDEX 01 01:40:38
  TRACK 131 AUDIO
    TITLE "0:"
    INDEX 01 01:41:44
  TRACK 132 AUDIO
    TITLE "2:cjc153_0837"
    INDEX 01 01:42:16
  TRACK 133 AUDIO
    TITLE "0:"
    INDEX 01 01:43:19
  TRACK 134 AUDIO
    TITLE "3:cjc153_0838"
    INDEX 01 01:43:56
  TRACK 135 AUDIO
    TITLE "0:"
    INDEX 01 01:44:64
  TRACK 136 AUDIO
    TITLE "2:cjc153_0839"
    INDEX 01 01:45:34
  TRACK 137 AUDIO
    TITLE "0:"
    INDEX 01 01:46:31
  TRACK 138 AUDIO
    TITLE "3:cjc153_0840"
    INDEX 01 01:46:66
  TRACK 139 AUDIO
    TITLE "0:"
    INDEX 01 01:47:74
  TRACK 140 AUDIO
    TITLE "2:cjc153_0841"
    INDEX 01 01:48:44
  TRACK 141 AUDIO
    TITLE "0:"
    INDEX 01 01:49:55
  TRACK 142 AUDIO
    TITLE "3:cjc153_0842"
    INDEX 01 01:50:13
  TRACK 143 AUDIO
    TITLE "0:"
    INDEX 01 01:51:30
  TRACK 144 AUDIO
    TITLE "2:cjc153_0843"
    INDEX 01 01:52:00
  TRACK 145 AUDIO
    TITLE "0:"
    INDEX 01 01:52:71
  TRACK 146 AUDIO
    TITLE "3:cjc153_0844"
    INDEX 01 01:53:31
  TRACK 147 AUDIO
    TITLE "0:"
    INDEX 01 01:54:31
  TRACK 148 AUDIO
    TITLE "2:cjc153_0845"
    INDEX 01 01:55:03
  TRACK 149 AUDIO
    TITLE "0:"
    INDEX 01 01:56:16
  TRACK 150 AUDIO
    TITLE "3:cjc153_0846"
    INDEX 01 01:56:51
  TRACK 151 AUDIO
    TITLE "0:"
    INDEX 01 01:57:64
